<svg width="69" height="28" viewBox="0 0 69 28" fill="none" xmlns="http://www.w3.org/2000/svg">
<path d="M20.4561 27H15.3291L5.34863 10.6279V27H0.22168V2.11719H5.34863L15.3462 18.5234V2.11719H20.4561V27Z" fill="#FFFEFD"/>
<path d="M29.8213 27H24.8652V8.50879H29.8213V27ZM24.5747 3.72363C24.5747 2.98307 24.8197 2.37354 25.3096 1.89502C25.8109 1.4165 26.4888 1.17725 27.3433 1.17725C28.1864 1.17725 28.8586 1.4165 29.3599 1.89502C29.8612 2.37354 30.1118 2.98307 30.1118 3.72363C30.1118 4.47559 29.8555 5.09082 29.3428 5.56934C28.8415 6.04785 28.175 6.28711 27.3433 6.28711C26.5116 6.28711 25.8394 6.04785 25.3267 5.56934C24.8254 5.09082 24.5747 4.47559 24.5747 3.72363Z" fill="#FFFEFD"/>
<path d="M40.6221 19.583L38.8447 21.3604V27H33.9058V0.75H38.8447V15.2935L39.8018 14.063L44.5356 8.50879H50.4658L43.7837 16.2163L51.0469 27H45.373L40.6221 19.583Z" fill="#FFFEFD"/>
<path d="M60.771 27.3418C58.0594 27.3418 55.8491 26.5101 54.1401 24.8467C52.4425 23.1833 51.5938 20.9673 51.5938 18.1987V17.7202C51.5938 15.8631 51.9526 14.2054 52.6704 12.7471C53.3882 11.2773 54.4022 10.1494 55.7124 9.36328C57.034 8.56576 58.5379 8.16699 60.2241 8.16699C62.7534 8.16699 64.7415 8.96452 66.1885 10.5596C67.6468 12.1546 68.376 14.4162 68.376 17.3442V19.3608H56.6011C56.7606 20.5685 57.2391 21.5369 58.0366 22.2661C58.8455 22.9953 59.8652 23.3599 61.0957 23.3599C62.9984 23.3599 64.4852 22.6706 65.5562 21.292L67.9829 24.0093C67.2424 25.0575 66.2397 25.8778 64.9751 26.4702C63.7104 27.0513 62.3091 27.3418 60.771 27.3418ZM60.207 12.166C59.2272 12.166 58.4297 12.4964 57.8145 13.1572C57.2106 13.818 56.8232 14.7637 56.6523 15.9941H63.5225V15.6011C63.4997 14.5073 63.2035 13.6642 62.6338 13.0718C62.0641 12.4679 61.2552 12.166 60.207 12.166Z" fill="#FFFEFD"/>
</svg>
