<svg width="70" height="70" viewBox="0 0 70 70" fill="none" xmlns="http://www.w3.org/2000/svg">
<path d="M35.4996 0.978937C35.4883 0.711225 35.2679 0.5 35 0.5C34.7321 0.5 34.5117 0.711225 34.5004 0.978937L33.2447 30.7623L11.2967 10.5902C11.0994 10.4089 10.7943 10.4153 10.6048 10.6048C10.4153 10.7943 10.4089 11.0994 10.5902 11.2967L30.7623 33.2447L0.978937 34.5004C0.711225 34.5117 0.5 34.7321 0.5 35C0.5 35.2679 0.711225 35.4883 0.978937 35.4996L30.7623 36.7553L10.5902 58.7033C10.4089 58.9006 10.4153 59.2057 10.6048 59.3952C10.7943 59.5847 11.0994 59.5911 11.2967 59.4098L33.2447 39.2377L34.5004 69.0211C34.5117 69.2888 34.7321 69.5 35 69.5C35.2679 69.5 35.4883 69.2888 35.4996 69.0211L36.7553 39.2377L58.7033 59.4098C58.9006 59.5911 59.2057 59.5847 59.3952 59.3952C59.5847 59.2057 59.5911 58.9006 59.4098 58.7033L39.2377 36.7553L69.0211 35.4996C69.2888 35.4883 69.5 35.2679 69.5 35C69.5 34.7321 69.2888 34.5117 69.0211 34.5004L39.2377 33.2447L59.4098 11.2967C59.5911 11.0994 59.5847 10.7943 59.3952 10.6048C59.2057 10.4153 58.9006 10.4089 58.7033 10.5902L36.7553 30.7623L35.4996 0.978937Z" fill="#2FB667" stroke="#2FB667" stroke-linecap="round" stroke-linejoin="round"/>
</svg>
